<svg width="449" height="115" viewBox="0 0 449 115" fill="none" xmlns="http://www.w3.org/2000/svg">
<path d="M7.01562 84.3824C88.1964 99.1159 289.044 119.743 442.987 84.3824C380.514 107.487 205.858 139.834 7.01562 84.3824Z" fill="#D9D9D9"/>
<path d="M63.9198 48.22C63.9198 52.0467 63.3481 55.4883 62.2048 58.545C61.0614 61.6017 59.4514 64.2033 57.3748 66.35C55.2981 68.4967 52.8014 70.1417 49.8848 71.285C46.9914 72.4283 43.7948 73 40.2948 73H22.1998V23.475H40.2948C43.7948 23.475 46.9914 24.0467 49.8848 25.19C52.8014 26.3333 55.2981 27.9783 57.3748 30.125C59.4514 32.2717 61.0614 34.8733 62.2048 37.93C63.3481 40.9867 63.9198 44.4167 63.9198 48.22ZM60.2098 48.22C60.2098 44.7667 59.7314 41.6867 58.7748 38.98C57.8181 36.2733 56.4648 33.9867 54.7148 32.12C52.9648 30.2533 50.8648 28.83 48.4148 27.85C45.9648 26.87 43.2581 26.38 40.2948 26.38H25.8048V70.095H40.2948C43.2581 70.095 45.9648 69.605 48.4148 68.625C50.8648 67.645 52.9648 66.2217 54.7148 64.355C56.4648 62.4883 57.8181 60.2017 58.7748 57.495C59.7314 54.7883 60.2098 51.6967 60.2098 48.22ZM124.313 23.475V73H121.198V30.79C121.198 30.1833 121.233 29.5417 121.303 28.865L101.808 63.48C101.482 64.0867 101.015 64.39 100.408 64.39H99.8484C99.2417 64.39 98.775 64.0867 98.4484 63.48L78.4284 28.795C78.4984 29.495 78.5334 30.16 78.5334 30.79V73H75.3834V23.475H77.8684C78.195 23.475 78.4517 23.51 78.6384 23.58C78.825 23.65 79.0117 23.8367 79.1984 24.14L99.1834 58.58C99.5334 59.2333 99.8367 59.9333 100.093 60.68C100.233 60.3067 100.385 59.945 100.548 59.595C100.712 59.2217 100.887 58.8717 101.073 58.545L120.498 24.14C120.685 23.8367 120.872 23.65 121.058 23.58C121.268 23.51 121.537 23.475 121.863 23.475H124.313ZM161.566 46.33H164.506C164.95 46.33 165.335 46.3183 165.661 46.295C165.988 46.2483 166.28 46.1783 166.536 46.085C166.816 45.9917 167.061 45.8633 167.271 45.7C167.505 45.5133 167.75 45.2917 168.006 45.035L187.991 24.49C188.341 24.0933 188.68 23.825 189.006 23.685C189.356 23.545 189.765 23.475 190.231 23.475H193.101L171.471 45.7C171.028 46.1667 170.631 46.5283 170.281 46.785C169.955 47.0417 169.581 47.2517 169.161 47.415C169.651 47.555 170.095 47.7767 170.491 48.08C170.888 48.36 171.285 48.7333 171.681 49.2L194.466 73H191.561C190.955 73 190.511 72.93 190.231 72.79C189.975 72.6267 189.718 72.3817 189.461 72.055L168.531 50.635C168.275 50.3783 168.03 50.1567 167.796 49.97C167.586 49.7833 167.341 49.6317 167.061 49.515C166.805 49.375 166.49 49.2817 166.116 49.235C165.766 49.165 165.311 49.13 164.751 49.13H161.566V73H157.961V23.475H161.566V46.33ZM229.1 55.01L219.02 29.985C218.67 29.1683 218.332 28.1883 218.005 27.045C217.865 27.605 217.713 28.1417 217.55 28.655C217.387 29.145 217.212 29.6 217.025 30.02L206.945 55.01H229.1ZM240.055 73H237.29C236.963 73 236.695 72.9183 236.485 72.755C236.275 72.5683 236.112 72.335 235.995 72.055L230.185 57.67H205.86L200.05 72.055C199.957 72.3117 199.793 72.5333 199.56 72.72C199.327 72.9067 199.047 73 198.72 73H195.99L216.255 23.475H219.79L240.055 73ZM286.484 23.475V73H284.804C284.501 73 284.244 72.9533 284.034 72.86C283.848 72.7433 283.661 72.5567 283.474 72.3L251.309 29.32C251.379 30.02 251.414 30.685 251.414 31.315V73H248.264V23.475H250.049C250.376 23.475 250.621 23.5217 250.784 23.615C250.971 23.685 251.169 23.86 251.379 24.14L283.474 67.015C283.404 66.315 283.369 65.65 283.369 65.02V23.475H286.484ZM317.136 70.13C321.476 70.13 324.754 69.1967 326.971 67.33C329.211 65.44 330.331 62.7917 330.331 59.385C330.331 57.8217 330.028 56.4217 329.421 55.185C328.838 53.925 327.986 52.8633 326.866 52C325.746 51.1133 324.369 50.4367 322.736 49.97C321.103 49.5033 319.248 49.27 317.171 49.27H304.711V70.13H317.136ZM304.711 26.31V46.645H315.421C317.708 46.645 319.656 46.3533 321.266 45.77C322.899 45.1867 324.229 44.4167 325.256 43.46C326.306 42.5033 327.076 41.4183 327.566 40.205C328.056 38.9917 328.301 37.7433 328.301 36.46C328.301 33.1233 327.239 30.6033 325.116 28.9C323.016 27.1733 319.761 26.31 315.351 26.31H304.711ZM315.351 23.475C318.174 23.475 320.624 23.755 322.701 24.315C324.778 24.875 326.493 25.7033 327.846 26.8C329.199 27.8733 330.203 29.1917 330.856 30.755C331.509 32.3183 331.836 34.0917 331.836 36.075C331.836 37.3817 331.603 38.6417 331.136 39.855C330.693 41.0683 330.039 42.1883 329.176 43.215C328.336 44.2417 327.286 45.14 326.026 45.91C324.789 46.6567 323.366 47.2283 321.756 47.625C325.653 48.185 328.639 49.48 330.716 51.51C332.816 53.5167 333.866 56.165 333.866 59.455C333.866 61.555 333.493 63.445 332.746 65.125C331.999 66.805 330.914 68.2283 329.491 69.395C328.068 70.5617 326.318 71.46 324.241 72.09C322.164 72.6967 319.808 73 317.171 73H301.106V23.475H315.351ZM371.424 55.01L361.344 29.985C360.994 29.1683 360.656 28.1883 360.329 27.045C360.189 27.605 360.038 28.1417 359.874 28.655C359.711 29.145 359.536 29.6 359.349 30.02L349.269 55.01H371.424ZM382.379 73H379.614C379.288 73 379.019 72.9183 378.809 72.755C378.599 72.5683 378.436 72.335 378.319 72.055L372.509 57.67H348.184L342.374 72.055C342.281 72.3117 342.118 72.5333 341.884 72.72C341.651 72.9067 341.371 73 341.044 73H338.314L358.579 23.475H362.114L382.379 73ZM428.808 23.475V73H427.128C426.825 73 426.568 72.9533 426.358 72.86C426.172 72.7433 425.985 72.5567 425.798 72.3L393.633 29.32C393.703 30.02 393.738 30.685 393.738 31.315V73H390.588V23.475H392.373C392.7 23.475 392.945 23.5217 393.108 23.615C393.295 23.685 393.493 23.86 393.703 24.14L425.798 67.015C425.728 66.315 425.693 65.65 425.693 65.02V23.475H428.808Z" fill="#D9D9D9"/>
</svg>
