<svg width="437" height="98" viewBox="0 0 437 98" fill="none" xmlns="http://www.w3.org/2000/svg">
<path d="M46.2265 27.0014C46.2265 30.8176 45.5905 34.3218 44.3184 37.514C43.0463 40.7061 41.2582 43.4543 38.9541 45.7584C36.65 48.0625 33.8778 49.8506 30.6377 51.1227C27.3975 52.3948 23.7973 53.0308 19.8371 53.0308H0V0.971985H19.8371C23.7973 0.971985 27.3975 1.62002 30.6377 2.91609C33.8778 4.18816 36.65 5.97626 38.9541 8.28038C41.2582 10.5605 43.0463 13.2967 44.3184 16.4888C45.5905 19.681 46.2265 23.1852 46.2265 27.0014ZM36.29 27.0014C36.29 24.1452 35.9059 21.5891 35.1379 19.333C34.3939 17.0529 33.3018 15.1328 31.8617 13.5727C30.4457 11.9886 28.7176 10.7765 26.6774 9.93647C24.6613 9.09643 22.3812 8.6764 19.8371 8.6764H9.72053V45.3264H19.8371C22.3812 45.3264 24.6613 44.9064 26.6774 44.0663C28.7176 43.2263 30.4457 42.0262 31.8617 40.4661C33.3018 38.882 34.3939 36.9619 35.1379 34.7058C35.9059 32.4257 36.29 29.8575 36.29 27.0014Z" fill="#D9D9D9"/>
<path d="M111.227 0.971985V53.0308H102.695V19.405C102.695 18.0609 102.767 16.6088 102.911 15.0487L87.1782 44.6063C86.4341 46.0224 85.2941 46.7305 83.758 46.7305H82.3899C80.8538 46.7305 79.7138 46.0224 78.9697 44.6063L63.0569 14.9407C63.1289 15.7328 63.1889 16.5128 63.2369 17.2809C63.2849 18.0489 63.3089 18.757 63.3089 19.405V53.0308H54.7764V0.971985H62.0848C62.5168 0.971985 62.8888 0.983986 63.2009 1.00799C63.5129 1.03199 63.7889 1.09199 64.0289 1.188C64.2929 1.284 64.5209 1.44001 64.7129 1.65602C64.9289 1.87203 65.133 2.16005 65.325 2.52007L80.9138 31.4296C81.3218 32.1977 81.6939 32.9897 82.0299 33.8058C82.3899 34.6218 82.7379 35.4619 83.0739 36.3259C83.41 35.4379 83.758 34.5858 84.118 33.7698C84.478 32.9297 84.862 32.1257 85.2701 31.3576L100.643 2.52007C100.835 2.16005 101.039 1.87203 101.255 1.65602C101.471 1.44001 101.699 1.284 101.939 1.188C102.203 1.09199 102.491 1.03199 102.803 1.00799C103.115 0.983986 103.487 0.971985 103.919 0.971985H111.227Z" fill="#D9D9D9"/>
<path d="M150.036 22.7892H152.304C153.216 22.7892 153.972 22.6692 154.572 22.4291C155.172 22.1651 155.688 21.7571 156.12 21.2051L170.485 3.0241C171.085 2.25605 171.709 1.72803 172.357 1.44001C173.029 1.12799 173.869 0.971985 174.877 0.971985H183.23L165.697 22.6092C164.665 23.9292 163.597 24.8653 162.493 25.4173C163.285 25.7053 163.993 26.1133 164.617 26.6414C165.265 27.1454 165.877 27.8174 166.453 28.6575L184.526 53.0308H175.993C174.841 53.0308 173.977 52.8748 173.401 52.5628C172.849 52.2268 172.381 51.7467 171.997 51.1227L157.272 31.8977C156.816 31.2496 156.288 30.7936 155.688 30.5296C155.088 30.2656 154.224 30.1336 153.096 30.1336H150.036V53.0308H140.351V0.971985H150.036V22.7892Z" fill="#D9D9D9"/>
<path d="M217.219 33.3737L210.883 16.0568C210.571 15.2888 210.247 14.3767 209.91 13.3207C209.574 12.2646 209.238 11.1245 208.902 9.90047C208.59 11.1245 208.266 12.2766 207.93 13.3567C207.594 14.4127 207.27 15.3368 206.958 16.1288L200.658 33.3737H217.219ZM234.32 53.0308H226.831C225.991 53.0308 225.307 52.8268 224.779 52.4188C224.251 51.9868 223.855 51.4587 223.591 50.8347L219.703 40.2141H198.138L194.25 50.8347C194.058 51.3867 193.686 51.8907 193.134 52.3468C192.582 52.8028 191.898 53.0308 191.081 53.0308H183.521L204.006 0.971985H213.871L234.32 53.0308Z" fill="#D9D9D9"/>
<path d="M283.595 0.971985V53.0308H278.626C277.858 53.0308 277.21 52.9108 276.682 52.6708C276.178 52.4068 275.686 51.9747 275.206 51.3747L248.025 16.6688C248.169 18.2529 248.241 19.717 248.241 21.0611V53.0308H239.708V0.971985H244.785C245.193 0.971985 245.541 0.995986 245.829 1.04399C246.141 1.06799 246.405 1.13999 246.621 1.26C246.861 1.35601 247.089 1.51202 247.305 1.72803C247.521 1.92004 247.761 2.18405 248.025 2.52007L275.314 37.37C275.242 36.5299 275.182 35.7019 275.134 34.8858C275.086 34.0698 275.062 33.3137 275.062 32.6177V0.971985H283.595Z" fill="#D9D9D9"/>
<path d="M314.665 45.4704C316.465 45.4704 317.977 45.2544 319.201 44.8224C320.425 44.3903 321.397 43.8143 322.117 43.0943C322.861 42.3742 323.389 41.5342 323.701 40.5741C324.037 39.6141 324.205 38.594 324.205 37.514C324.205 36.3859 324.025 35.3778 323.665 34.4898C323.305 33.5778 322.741 32.8097 321.973 32.1857C321.205 31.5376 320.209 31.0456 318.985 30.7096C317.785 30.3736 316.333 30.2056 314.629 30.2056H304.872V45.4704H314.665ZM304.872 8.46039V23.5092H312.577C315.889 23.5092 318.385 22.9092 320.065 21.7091C321.769 20.509 322.621 18.6009 322.621 15.9848C322.621 13.2727 321.853 11.3405 320.317 10.1885C318.781 9.03642 316.381 8.46039 313.117 8.46039H304.872ZM313.117 0.971985C316.525 0.971985 319.441 1.296 321.865 1.94404C324.289 2.59207 326.27 3.51612 327.806 4.71619C329.366 5.91625 330.506 7.36833 331.226 9.07242C331.946 10.7765 332.306 12.6966 332.306 14.8327C332.306 16.0568 332.126 17.2329 331.766 18.3609C331.406 19.465 330.842 20.509 330.074 21.4931C329.33 22.4531 328.37 23.3292 327.194 24.1212C326.042 24.9133 324.661 25.5853 323.053 26.1373C330.206 27.7454 333.782 31.6096 333.782 37.73C333.782 39.9381 333.362 41.9782 332.522 43.8503C331.682 45.7224 330.458 47.3425 328.85 48.7106C327.242 50.0546 325.261 51.1107 322.909 51.8787C320.557 52.6468 317.869 53.0308 314.845 53.0308H295.188V0.971985H313.117Z" fill="#D9D9D9"/>
<path d="M369.243 33.3737L362.906 16.0568C362.594 15.2888 362.27 14.3767 361.934 13.3207C361.598 12.2646 361.262 11.1245 360.926 9.90047C360.614 11.1245 360.29 12.2766 359.954 13.3567C359.618 14.4127 359.294 15.3368 358.982 16.1288L352.682 33.3737H369.243ZM386.344 53.0308H378.855C378.015 53.0308 377.331 52.8268 376.803 52.4188C376.275 51.9868 375.879 51.4587 375.615 50.8347L371.727 40.2141H350.162L346.273 50.8347C346.081 51.3867 345.709 51.8907 345.157 52.3468C344.605 52.8028 343.921 53.0308 343.105 53.0308H335.545L356.03 0.971985H365.895L386.344 53.0308Z" fill="#D9D9D9"/>
<path d="M435.619 0.971985V53.0308H430.65C429.882 53.0308 429.234 52.9108 428.706 52.6708C428.202 52.4068 427.71 51.9747 427.23 51.3747L400.049 16.6688C400.193 18.2529 400.265 19.717 400.265 21.0611V53.0308H391.732V0.971985H396.808C397.216 0.971985 397.564 0.995986 397.852 1.04399C398.164 1.06799 398.428 1.13999 398.645 1.26C398.885 1.35601 399.113 1.51202 399.329 1.72803C399.545 1.92004 399.785 2.18405 400.049 2.52007L427.338 37.37C427.266 36.5299 427.206 35.7019 427.158 34.8858C427.11 34.0698 427.086 33.3137 427.086 32.6177V0.971985H435.619Z" fill="#D9D9D9"/>
<path d="M1.20406 67.0316C82.2085 81.699 282.619 102.233 436.228 67.0316C373.891 90.0328 199.615 122.235 1.20406 67.0316Z" fill="#D9D9D9"/>
</svg>
